<svg xmlns:dc="http://purl.org/dc/elements/1.1/"
    xmlns:cc="http://creativecommons.org/ns#"
    xmlns:rdf="http://www.w3.org/1999/02/22-rdf-syntax-ns#"
    xmlns:svg="http://www.w3.org/2000/svg"
    xmlns="http://www.w3.org/2000/svg" version="1.1" id="svg2" viewBox="0 0 420 339.99998" height="339.99997" width="420">
    <title id="title4852">Alternating Zig-Zag</title>
    <defs id="defs4" />
    <g transform="translate(-163.23497,-269.70886)" id="layer1">
        <g transform="translate(-96.448673,-171.46431)" id="g4790">
            <g transform="matrix(0.65485599,0,0,0.64991064,148.30214,258.02356)" id="use4662" style="fill:#000000;stroke:#000000;stroke-width:1.53281951">
                <g style="stroke-width:1.53281951" id="g4672">
                    <g style="stroke-width:1.53281951" id="g4674">
                        <path transform="matrix(0.72924422,0.68425351,0,1,0,0)" style="opacity:1;fill:#ffffff;fill-opacity:1;stroke:#000000;stroke-width:2.68809366;stroke-opacity:1" d="m 344.28195,178.49527 107.94878,0 0,53.18233 -107.94878,0 z" id="path4676" />
                        <path transform="matrix(-0.72689593,0.68674763,0,1,0,0)" style="opacity:1;fill:#000000;fill-opacity:1;stroke:none;stroke-width:1.75652289" d="m -344.5145,649.18921 110.05701,0 0,54.4186 -110.05701,0 z" id="path4678" />
                    </g>
                    <g style="stroke-width:1.53281951" transform="translate(159.99989,6.4144842e-7)" id="g4680">
                        <path transform="matrix(0.72924422,0.68425351,0,1,0,0)" style="opacity:1;fill:#ffffff;fill-opacity:1;stroke:#000000;stroke-width:2.68809366;stroke-opacity:1" d="m 344.28195,178.49527 107.94878,0 0,53.18233 -107.94878,0 z" id="path4682" />
                        <path transform="matrix(-0.72689593,0.68674763,0,1,0,0)" style="opacity:1;fill:#000000;fill-opacity:1;stroke:none;stroke-width:1.75652289" d="m -344.5145,649.18921 110.05701,0 0,54.4186 -110.05701,0 z" id="path4684" />
                    </g>
                </g>
                <g style="stroke-width:1.53281951" id="g4686" transform="matrix(-1,0,0,1,660.85216,-130.00032)">
                    <g style="stroke-width:1.53281951" id="g4688">
                        <path transform="matrix(0.72924422,0.68425351,0,1,0,0)" style="opacity:1;fill:#ffffff;fill-opacity:1;stroke:#000000;stroke-width:2.68809366;stroke-opacity:1" d="m 344.28195,178.49527 107.94878,0 0,53.18233 -107.94878,0 z" id="path4690" />
                        <path transform="matrix(-0.72689593,0.68674763,0,1,0,0)" style="opacity:1;fill:#000000;fill-opacity:1;stroke:none;stroke-width:1.75652289" d="m -344.5145,649.18921 110.05701,0 0,54.4186 -110.05701,0 z" id="path4692" />
                    </g>
                    <g style="stroke-width:1.53281951" id="g4694" transform="translate(159.99989,6.4144842e-7)">
                        <path transform="matrix(0.72924422,0.68425351,0,1,0,0)" style="opacity:1;fill:#ffffff;fill-opacity:1;stroke:#000000;stroke-width:2.68809366;stroke-opacity:1" d="m 344.28195,178.49527 107.94878,0 0,53.18233 -107.94878,0 z" id="path4696" />
                        <path transform="matrix(-0.72689593,0.68674763,0,1,0,0)" style="opacity:1;fill:#000000;fill-opacity:1;stroke:none;stroke-width:1.75652289" d="m -344.5145,649.18921 110.05701,0 0,54.4186 -110.05701,0 z" id="path4698" />
                    </g>
                </g>
            </g>
            <g transform="matrix(0.65485599,0,0,0.64991064,148.30214,428.02355)" id="use4664" style="fill:#000000;stroke:#000000;stroke-width:1.53281951">
                <g style="stroke-width:1.53281951" id="g4702">
                    <g style="stroke-width:1.53281951" id="g4704">
                        <path transform="matrix(0.72924422,0.68425351,0,1,0,0)" style="opacity:1;fill:#ffffff;fill-opacity:1;stroke:#000000;stroke-width:2.68809366;stroke-opacity:1" d="m 344.28195,178.49527 107.94878,0 0,53.18233 -107.94878,0 z" id="path4706" />
                        <path transform="matrix(-0.72689593,0.68674763,0,1,0,0)" style="opacity:1;fill:#000000;fill-opacity:1;stroke:none;stroke-width:1.75652289" d="m -344.5145,649.18921 110.05701,0 0,54.4186 -110.05701,0 z" id="path4708" />
                    </g>
                    <g style="stroke-width:1.53281951" transform="translate(159.99989,6.4144842e-7)" id="g4710">
                        <path transform="matrix(0.72924422,0.68425351,0,1,0,0)" style="opacity:1;fill:#ffffff;fill-opacity:1;stroke:#000000;stroke-width:2.68809366;stroke-opacity:1" d="m 344.28195,178.49527 107.94878,0 0,53.18233 -107.94878,0 z" id="path4712" />
                        <path transform="matrix(-0.72689593,0.68674763,0,1,0,0)" style="opacity:1;fill:#000000;fill-opacity:1;stroke:none;stroke-width:1.75652289" d="m -344.5145,649.18921 110.05701,0 0,54.4186 -110.05701,0 z" id="path4714" />
                    </g>
                </g>
                <g style="stroke-width:1.53281951" id="g4716" transform="matrix(-1,0,0,1,660.85216,-130.00032)">
                    <g style="stroke-width:1.53281951" id="g4718">
                        <path transform="matrix(0.72924422,0.68425351,0,1,0,0)" style="opacity:1;fill:#ffffff;fill-opacity:1;stroke:#000000;stroke-width:2.68809366;stroke-opacity:1" d="m 344.28195,178.49527 107.94878,0 0,53.18233 -107.94878,0 z" id="path4720" />
                        <path transform="matrix(-0.72689593,0.68674763,0,1,0,0)" style="opacity:1;fill:#000000;fill-opacity:1;stroke:none;stroke-width:1.75652289" d="m -344.5145,649.18921 110.05701,0 0,54.4186 -110.05701,0 z" id="path4722" />
                    </g>
                    <g style="stroke-width:1.53281951" id="g4724" transform="translate(159.99989,6.4144842e-7)">
                        <path transform="matrix(0.72924422,0.68425351,0,1,0,0)" style="opacity:1;fill:#ffffff;fill-opacity:1;stroke:#000000;stroke-width:2.68809366;stroke-opacity:1" d="m 344.28195,178.49527 107.94878,0 0,53.18233 -107.94878,0 z" id="path4726" />
                        <path transform="matrix(-0.72689593,0.68674763,0,1,0,0)" style="opacity:1;fill:#000000;fill-opacity:1;stroke:none;stroke-width:1.75652289" d="m -344.5145,649.18921 110.05701,0 0,54.4186 -110.05701,0 z" id="path4728" />
                    </g>
                </g>
            </g>
            <g transform="matrix(0.65485599,0,0,0.64991064,358.30214,258.02356)" id="use4666" style="fill:#000000;stroke:#000000;stroke-width:1.53281951">
                <g style="stroke-width:1.53281951" id="g4732">
                    <g style="stroke-width:1.53281951" id="g4734">
                        <path transform="matrix(0.72924422,0.68425351,0,1,0,0)" style="opacity:1;fill:#ffffff;fill-opacity:1;stroke:#000000;stroke-width:2.68809366;stroke-opacity:1" d="m 344.28195,178.49527 107.94878,0 0,53.18233 -107.94878,0 z" id="path4736" />
                        <path transform="matrix(-0.72689593,0.68674763,0,1,0,0)" style="opacity:1;fill:#000000;fill-opacity:1;stroke:none;stroke-width:1.75652289" d="m -344.5145,649.18921 110.05701,0 0,54.4186 -110.05701,0 z" id="path4738" />
                    </g>
                    <g style="stroke-width:1.53281951" transform="translate(159.99989,6.4144842e-7)" id="g4740">
                        <path transform="matrix(0.72924422,0.68425351,0,1,0,0)" style="opacity:1;fill:#ffffff;fill-opacity:1;stroke:#000000;stroke-width:2.68809366;stroke-opacity:1" d="m 344.28195,178.49527 107.94878,0 0,53.18233 -107.94878,0 z" id="path4742" />
                        <path transform="matrix(-0.72689593,0.68674763,0,1,0,0)" style="opacity:1;fill:#000000;fill-opacity:1;stroke:none;stroke-width:1.75652289" d="m -344.5145,649.18921 110.05701,0 0,54.4186 -110.05701,0 z" id="path4744" />
                    </g>
                </g>
                <g style="stroke-width:1.53281951" id="g4746" transform="matrix(-1,0,0,1,660.85216,-130.00032)">
                    <g style="stroke-width:1.53281951" id="g4748">
                        <path transform="matrix(0.72924422,0.68425351,0,1,0,0)" style="opacity:1;fill:#ffffff;fill-opacity:1;stroke:#000000;stroke-width:2.68809366;stroke-opacity:1" d="m 344.28195,178.49527 107.94878,0 0,53.18233 -107.94878,0 z" id="path4750" />
                        <path transform="matrix(-0.72689593,0.68674763,0,1,0,0)" style="opacity:1;fill:#000000;fill-opacity:1;stroke:none;stroke-width:1.75652289" d="m -344.5145,649.18921 110.05701,0 0,54.4186 -110.05701,0 z" id="path4752" />
                    </g>
                    <g style="stroke-width:1.53281951" id="g4754" transform="translate(159.99989,6.4144842e-7)">
                        <path transform="matrix(0.72924422,0.68425351,0,1,0,0)" style="opacity:1;fill:#ffffff;fill-opacity:1;stroke:#000000;stroke-width:2.68809366;stroke-opacity:1" d="m 344.28195,178.49527 107.94878,0 0,53.18233 -107.94878,0 z" id="path4756" />
                        <path transform="matrix(-0.72689593,0.68674763,0,1,0,0)" style="opacity:1;fill:#000000;fill-opacity:1;stroke:none;stroke-width:1.75652289" d="m -344.5145,649.18921 110.05701,0 0,54.4186 -110.05701,0 z" id="path4758" />
                    </g>
                </g>
            </g>
            <g transform="matrix(0.65485599,0,0,0.64991064,358.30214,428.02355)" id="use4668" style="fill:#000000;stroke:#000000;stroke-width:1.53281951">
                <g style="stroke-width:1.53281951" id="g4762">
                    <g style="stroke-width:1.53281951" id="g4764">
                        <path transform="matrix(0.72924422,0.68425351,0,1,0,0)" style="opacity:1;fill:#ffffff;fill-opacity:1;stroke:#000000;stroke-width:2.68809366;stroke-opacity:1" d="m 344.28195,178.49527 107.94878,0 0,53.18233 -107.94878,0 z" id="path4766" />
                        <path transform="matrix(-0.72689593,0.68674763,0,1,0,0)" style="opacity:1;fill:#000000;fill-opacity:1;stroke:none;stroke-width:1.75652289" d="m -344.5145,649.18921 110.05701,0 0,54.4186 -110.05701,0 z" id="path4768" />
                    </g>
                    <g style="stroke-width:1.53281951" transform="translate(159.99989,6.4144842e-7)" id="g4770">
                        <path transform="matrix(0.72924422,0.68425351,0,1,0,0)" style="opacity:1;fill:#ffffff;fill-opacity:1;stroke:#000000;stroke-width:2.68809366;stroke-opacity:1" d="m 344.28195,178.49527 107.94878,0 0,53.18233 -107.94878,0 z" id="path4772" />
                        <path transform="matrix(-0.72689593,0.68674763,0,1,0,0)" style="opacity:1;fill:#000000;fill-opacity:1;stroke:none;stroke-width:1.75652289" d="m -344.5145,649.18921 110.05701,0 0,54.4186 -110.05701,0 z" id="path4774" />
                    </g>
                </g>
                <g style="stroke-width:1.53281951" id="g4776" transform="matrix(-1,0,0,1,660.85216,-130.00032)">
                    <g style="stroke-width:1.53281951" id="g4778">
                        <path transform="matrix(0.72924422,0.68425351,0,1,0,0)" style="opacity:1;fill:#ffffff;fill-opacity:1;stroke:#000000;stroke-width:2.68809366;stroke-opacity:1" d="m 344.28195,178.49527 107.94878,0 0,53.18233 -107.94878,0 z" id="path4780" />
                        <path transform="matrix(-0.72689593,0.68674763,0,1,0,0)" style="opacity:1;fill:#000000;fill-opacity:1;stroke:none;stroke-width:1.75652289" d="m -344.5145,649.18921 110.05701,0 0,54.4186 -110.05701,0 z" id="path4782" />
                    </g>
                    <g style="stroke-width:1.53281951" id="g4784" transform="translate(159.99989,6.4144842e-7)">
                        <path transform="matrix(0.72924422,0.68425351,0,1,0,0)" style="opacity:1;fill:#ffffff;fill-opacity:1;stroke:#000000;stroke-width:2.68809366;stroke-opacity:1" d="m 344.28195,178.49527 107.94878,0 0,53.18233 -107.94878,0 z" id="path4786" />
                        <path transform="matrix(-0.72689593,0.68674763,0,1,0,0)" style="opacity:1;fill:#000000;fill-opacity:1;stroke:none;stroke-width:1.75652289" d="m -344.5145,649.18921 110.05701,0 0,54.4186 -110.05701,0 z" id="path4788" />
                    </g>
                </g>
            </g>
        </g>
    </g>
</svg>
