<svg id="Layer_2" data-name="Layer 2"
    xmlns="http://www.w3.org/2000/svg" viewBox="0 0 932.67 1176" fill="red">
    <defs>
        <!-- <style>.cls-1{fill:#231f20;stroke:#231f20;stroke-miterlimit:10;}</style> -->
    </defs>
    <title>5</title>
    <path class="cls-1" d="M833.81,458.26,941.68,333.83a19.11,19.11,0,0,0,1.16-23.57L845.32,172.43a21.14,21.14,0,0,0-17.26-8.93l-405.9-1a28.34,28.34,0,0,0-23.57,12.61L304.71,312.43a20.52,20.52,0,0,0,1.63,24.89L412.62,458.89C261.5,535.67,158,692.28,158,873c0,256.54,208.56,464.5,465.83,464.5s465.84-208,465.84-464.5C1089.67,691.79,985.6,534.81,833.81,458.26Zm-34.23-15.57-63.17,72.87-66.7,76.94,26.35-87.12,26.15-86.5h0l22.49-74.38h140ZM566.06,412,546.5,344.5H700l-19.24,67.44-25.07,87.88L623.83,611.5,591.5,499.86Zm262.56-194.1,63.86,89.12H764.76Zm-39.31-15.77-62,88-62-88ZM687.67,307.06H560l63.86-89.12ZM584.33,202.17l-62,88-62-88ZM421,220.17l60.67,84.66H360.33ZM365,344.5H505l22.37,74L553.54,505,580,592.5l-67.14-77.45-63.26-73Zm524.68,793.22a376.48,376.48,0,0,1-612.22-119.06A374.82,374.82,0,0,1,474.2,529.34L623.83,700.5,772.55,528.94A376.77,376.77,0,0,1,970.2,727.34a373.26,373.26,0,0,1-80.52,410.38Z" transform="translate(-157.5 -162)"/>
</svg>